<mxfile host="65bd71144e">
    <diagram id="HIP3nbAZw_EuaXWnEj3U" name="Page-1">
        <mxGraphModel dx="606" dy="243" grid="1" gridSize="10" guides="1" tooltips="1" connect="1" arrows="1" fold="1" page="1" pageScale="1" pageWidth="850" pageHeight="1100" math="0" shadow="0">
            <root>
                <mxCell id="0"/>
                <mxCell id="1" parent="0"/>
                <mxCell id="7" value="http://ics2o.mths.ca" style="swimlane;whiteSpace=wrap;html=1;" parent="1" vertex="1">
                    <mxGeometry x="40" y="40" width="760" height="480" as="geometry"/>
                </mxCell>
                <mxCell id="8" value="&lt;font style=&quot;font-size: 17px;&quot;&gt;Select&amp;nbsp; what kind of number you would like.&lt;/font&gt;" style="text;html=1;align=center;verticalAlign=middle;resizable=0;points=[];autosize=1;strokeColor=none;fillColor=none;" vertex="1" parent="7">
                    <mxGeometry x="30" y="50" width="350" height="30" as="geometry"/>
                </mxCell>
                <mxCell id="10" value="Positive" style="text;html=1;align=center;verticalAlign=middle;resizable=0;points=[];autosize=1;strokeColor=none;fillColor=none;fontSize=17;" vertex="1" parent="7">
                    <mxGeometry x="60" y="115" width="80" height="30" as="geometry"/>
                </mxCell>
                <mxCell id="12" value="GENERATE" style="whiteSpace=wrap;html=1;fontSize=17;" vertex="1" parent="7">
                    <mxGeometry x="45" y="190" width="110" height="40" as="geometry"/>
                </mxCell>
                <mxCell id="13" value="The random number is :" style="text;html=1;align=center;verticalAlign=middle;resizable=0;points=[];autosize=1;strokeColor=none;fillColor=none;fontSize=17;" vertex="1" parent="7">
                    <mxGeometry x="20" y="265" width="200" height="30" as="geometry"/>
                </mxCell>
                <mxCell id="11" value="Negative" style="text;html=1;align=center;verticalAlign=middle;resizable=0;points=[];autosize=1;strokeColor=none;fillColor=none;fontSize=17;" vertex="1" parent="1">
                    <mxGeometry x="215" y="155" width="90" height="30" as="geometry"/>
                </mxCell>
            </root>
        </mxGraphModel>
    </diagram>
</mxfile>